HIERARCHY
ROOT root
{
	OFFSET 0.000000 0.000000 0.000000
	CHANNELS 6 Xposition Yposition Zposition Zrotation Yrotation Xrotation
	JOINT lhip
	{
		OFFSET 0.058581 -0.082280 -0.017664
		CHANNELS 3 Zrotation Yrotation Xrotation
		JOINT lknee
		{
			OFFSET 0.043451 -0.386469 0.008037
			CHANNELS 3 Zrotation Yrotation Xrotation
			JOINT lankle
			{
				OFFSET -0.014790 -0.426874 -0.037428
				CHANNELS 3 Zrotation Yrotation Xrotation
				JOINT ltoe
				{
					OFFSET 0.041054 -0.060286 0.122042
					CHANNELS 3 Zrotation Yrotation Xrotation
					End Site
					{
						OFFSET 0.000000 0.000000 0.000000
					}
				}
			}
		}
	}
	JOINT rhip
	{
		OFFSET -0.060310 -0.090513 -0.013543
		CHANNELS 3 Zrotation Yrotation Xrotation
		JOINT rknee
		{
			OFFSET -0.043257 -0.383688 -0.004843
			CHANNELS 3 Zrotation Yrotation Xrotation
			JOINT rankle
			{
				OFFSET 0.019056 -0.420046 -0.034562
				CHANNELS 3 Zrotation Yrotation Xrotation
				JOINT rtoe
				{
					OFFSET -0.034840 -0.062106 0.130323
					CHANNELS 3 Zrotation Yrotation Xrotation
					End Site
					{
						OFFSET 0.000000 0.000000 0.000000
					}
				}
			}
		}
	}
	JOINT lowerback
	{
		OFFSET 0.004439 0.124404 -0.038385
		CHANNELS 3 Zrotation Yrotation Xrotation
		JOINT upperback
		{
			OFFSET 0.004488 0.137956 0.026820
			CHANNELS 3 Zrotation Yrotation Xrotation
			JOINT chest
			{
				OFFSET -0.002265 0.056032 0.002855
				CHANNELS 3 Zrotation Yrotation Xrotation
				JOINT lowerneck
				{
					OFFSET -0.013390 0.211636 -0.033468
					CHANNELS 3 Zrotation Yrotation Xrotation
					JOINT upperneck
					{
						OFFSET 0.010113 0.088937 0.050410
						CHANNELS 3 Zrotation Yrotation Xrotation
						End Site
						{
							OFFSET 0.000000 0.000000 0.000000
						}
					}
				}
				JOINT lclavicle
				{
					OFFSET 0.071702 0.114000 -0.018898
					CHANNELS 3 Zrotation Yrotation Xrotation
					JOINT lshoulder
					{
						OFFSET 0.122921 0.045205 -0.019046
						CHANNELS 3 Zrotation Yrotation Xrotation
						JOINT lelbow
						{
							OFFSET 0.255332 -0.015649 -0.022946
							CHANNELS 3 Zrotation Yrotation Xrotation
							JOINT lwrist
							{
								OFFSET 0.265709 0.012698 -0.007375
								CHANNELS 3 Zrotation Yrotation Xrotation
								End Site
								{
									OFFSET 0.000000 0.000000 0.000000
								}
							}
						}
					}
				}
				JOINT rclavicle
				{
					OFFSET -0.082954 0.112472 -0.023707
					CHANNELS 3 Zrotation Yrotation Xrotation
					JOINT rshoulder
					{
						OFFSET -0.113228 0.046853 -0.008472
						CHANNELS 3 Zrotation Yrotation Xrotation
						JOINT relbow
						{
							OFFSET -0.260127 -0.014369 -0.031269
							CHANNELS 3 Zrotation Yrotation Xrotation
							JOINT rwrist
							{
								OFFSET -0.269108 0.006794 -0.006027
								CHANNELS 3 Zrotation Yrotation Xrotation
								End Site
								{
									OFFSET 0.000000 0.000000 0.000000
								}
							}
						}
					}
				}
			}
		}
	}
}
MOTION
Frames: 7
Frame Time: 0.033333
-1.668540 0.238006 0.976905 99.985899 0.273033 88.599227 3.186760 2.515996 1.975633 -2.384272 -14.087429 4.617750 2.063088 13.743848 -13.854566 0.000000 -0.000000 0.000000 -4.892016 -6.197633 -1.485577 0.400307 4.738847 14.458149 5.055133 -15.445590 -15.340005 0.000000 -0.000000 0.000000 1.920284 2.318969 7.050364 0.811105 -1.069962 -1.340957 1.263580 -2.419612 1.563672 -3.196558 -6.245182 9.472577 -1.004001 -3.946635 0.456433 -15.391706 5.692890 -5.133300 -23.351475 -3.986491 -5.587951 7.128997 -20.343749 4.596046 2.828333 -0.098360 7.005011 8.025254 -3.721933 -4.787166 27.241737 2.062624 -3.791652 -14.182531 16.935259 -7.817262 -14.388962 0.953050 10.287992 
-1.667918 0.237882 0.977463 99.663378 0.217067 88.478929 3.127318 2.804062 2.222908 -2.304761 -14.246774 4.471248 2.350902 13.918424 -13.614344 0.000000 -0.000000 0.000000 -4.957044 -6.187741 -1.374619 0.502417 5.248045 14.379178 5.276582 -15.692229 -15.399427 0.000000 -0.000000 0.000000 1.913492 2.189142 7.238868 0.851223 -1.326005 -1.529605 1.187346 -2.428186 1.716096 -3.332091 -6.405608 9.913509 -0.680743 -3.861323 0.178983 -14.445881 5.909525 -5.578572 -21.298812 -3.819665 -6.545036 7.858639 -20.346229 2.429271 4.792079 -0.242134 5.971236 7.064235 -3.893116 -5.229163 25.294261 1.949126 -4.579166 -14.212459 17.037496 -8.184070 -15.678144 1.248871 10.901886 
-1.667628 0.237537 0.977800 99.416057 0.219753 88.427655 3.180644 2.916928 2.330252 -2.319760 -14.346259 4.363511 2.261887 14.200455 -13.501280 0.000000 -0.000000 0.000000 -4.909314 -6.140190 -1.389840 0.569393 5.656339 14.371292 5.306299 -15.952239 -15.375743 0.000000 -0.000000 0.000000 1.952801 2.030837 7.174181 0.818410 -1.513064 -1.521436 1.094796 -2.330163 1.818628 -3.244775 -6.377988 10.488090 -0.533560 -3.776168 0.691430 -13.532239 5.890262 -5.571288 -19.810493 -3.883911 -7.525759 8.649890 -20.626741 0.335985 6.712058 -0.261869 6.060966 6.434796 -3.972426 -5.490673 23.724295 1.756431 -5.252844 -14.415978 17.279063 -8.781138 -16.638137 1.451548 11.385860 
-1.667653 0.237064 0.978165 99.231943 0.257156 88.326621 3.291927 3.050969 2.329943 -2.363887 -14.402077 4.478436 2.184710 14.386991 -13.452183 0.000000 -0.000000 0.000000 -4.822801 -6.127459 -1.446343 0.601469 5.854088 14.528475 5.330433 -16.042523 -15.375156 0.000000 -0.000000 0.000000 2.028459 1.883596 7.300374 0.806946 -1.602844 -1.621542 1.061212 -2.393788 1.975297 -3.303641 -6.391266 11.543659 -0.385087 -3.467407 1.084180 -12.779691 5.977008 -5.683655 -18.574171 -4.185083 -8.449113 9.392499 -21.413580 -1.242897 8.181178 -0.166514 5.971601 5.602351 -4.282252 -5.925842 22.597217 1.619654 -5.854648 -14.574472 17.866553 -9.025753 -17.306252 1.482759 11.523493 
-1.667439 0.236599 0.978335 99.081581 0.262470 88.257350 3.354687 3.133678 2.394273 -2.388794 -14.374784 4.495048 2.196384 14.456628 -13.423732 0.000000 -0.000000 0.000000 -4.790378 -6.111595 -1.461184 0.619705 5.940176 14.642338 5.346855 -16.023759 -15.391887 0.000000 -0.000000 0.000000 2.044917 1.804001 7.363590 0.806706 -1.618878 -1.716913 1.041396 -2.447897 2.009189 -3.481772 -6.544622 12.407497 -0.364307 -3.448595 1.516607 -12.438709 6.022525 -5.745364 -18.099021 -4.403423 -8.814240 9.672807 -21.778243 -1.539333 8.390807 -0.229905 6.001479 5.148733 -4.385789 -6.006101 22.246617 1.572566 -6.076686 -14.624923 18.098965 -8.881312 -17.301903 1.637634 11.520706 
-1.667191 0.235881 0.978451 98.941351 0.261091 88.121275 3.446228 3.253869 2.522971 -2.435570 -14.364578 4.514822 2.205922 14.512219 -13.406900 0.000000 -0.000000 0.000000 -4.768967 -6.122801 -1.424602 0.663769 6.030322 14.792076 5.372063 -16.008438 -15.439858 0.000000 -0.000000 0.000000 2.064065 1.661781 7.482778 0.801396 -1.686204 -1.823701 0.942975 -2.499522 2.100192 -3.561112 -6.747197 13.692673 -0.375578 -3.548450 2.360702 -12.109657 6.062469 -5.758429 -17.594509 -4.763822 -9.101843 9.796273 -22.185827 -1.496695 8.672615 -0.221498 6.265347 4.797135 -4.492686 -6.155685 21.881961 1.719899 -6.242340 -14.459252 18.110253 -8.513876 -17.536749 1.678557 11.723987 
-1.666910 0.234885 0.978445 98.794381 0.272607 87.963820 3.564099 3.445002 2.682882 -2.476320 -14.437923 4.533714 2.222162 14.577389 -13.419911 0.000000 -0.000000 0.000000 -4.716882 -6.071383 -1.363623 0.713707 6.071038 14.947226 5.345213 -15.997783 -15.510492 0.000000 -0.000000 0.000000 2.073166 1.486371 7.565622 0.797859 -1.753150 -1.828641 0.874626 -2.602942 2.091667 -3.620414 -6.767816 15.122568 -0.388583 -3.377813 3.303055 -11.939977 5.953364 -5.573705 -17.271521 -4.870697 -9.211884 9.880375 -22.534461 -1.120189 8.700531 -0.257572 6.844675 4.482334 -4.357856 -6.103466 21.703160 1.856885 -6.377152 -14.209152 17.976253 -8.041963 -17.515862 1.658521 11.744884 
